#!OML:ASF \\Waltz\H\Terrain\Patient Classification 1\Animal2\Wednesday\Animal2.ASF
:FULLY-SPECIFIED
:DEGREES
1859
root -4.89876 18.1132 -14.0074 -1.30951 1.98245 -3.88991
lowerback 4.38148 -2.97788 1.00255
upperback -6.47562 -3.89308 0.348455
thorax -9.34184 -1.95481 0.293146
lowerneck -2.75967 -1.39159 11.483
upperneck 3.41161 -1.48228 -26.5797
head 1.13197 -1.11635 -10.4272
rclavicle 1.41137e-014 3.18055e-015
rhumerus -46.4611 -32.4263 -26.6643
rradius 61.5282
rwrist 29.0219
rhand 47.7966 40.0815
rfingers 7.12502
rthumb 68.4475 39.9498
lclavicle 1.41137e-014 3.18055e-015
lhumerus -56.4256 24.1437 22.3633
lradius 61.8424
lwrist 12.2269
lhand 38.5722 46.0257
lfingers 7.12502
lthumb 61.2014 -301.52
rfemur -12.4297 -0.96498 16.2837
rtibia 31.9368
rfoot -7.95967 -8.64889
rtoes 32.6776
lfemur -7.20059 -2.24326 -12.156
ltibia 26.7357
lfoot -10.6192 -2.8061
ltoes -42.0474
1860
root -4.94 18.1977 -13.9368 -1.43832 1.93639 -3.53754
lowerback 4.15992 -2.96578 0.832134
upperback -6.35725 -3.906 0.190218
thorax -9.07963 -1.95746 0.204537
lowerneck -2.68916 -1.42653 11.3638
upperneck 3.35903 -1.54256 -26.227
head 1.09692 -1.13368 -10.2727
rclavicle -1.02374e-014 -7.15625e-015
rhumerus -46.0608 -32.2389 -26.5019
rradius 61.7916
rwrist 28.6849
rhand 47.6944 38.4838
rfingers 7.12502
rthumb 68.3749 38.1702
lclavicle -1.02374e-014 -7.15625e-015
lhumerus -56.0461 24.3443 21.6091
lradius 62.1851
lwrist 12.4768
lhand 37.6085 45.4525
lfingers 7.12502
lthumb 60.3849 -301.178
rfemur -12.2535 -1.29979 16.0555
rtibia 31.6442
rfoot -6.23532 -8.34073
rtoes 34.0041
lfemur -6.30237 -2.45163 -12.4496
ltibia 25.7356
lfoot -8.7448 -3.14523
ltoes -40.1544
1861
root -4.98164 18.2907 -13.8628 -1.49015 1.82673 -3.0264
lowerback 3.75182 -2.90341 0.508686
upperback -6.18614 -3.86665 -0.0256591
thorax -8.64347 -1.92814 0.122
lowerneck -2.64224 -1.46643 11.4732
upperneck 3.11416 -1.65204 -26.0712
head 0.99933 -1.16803 -10.2328
rclavicle 3.32964e-014 -1.19271e-015
rhumerus -45.638 -32.4963 -26.2348
rradius 61.8179
rwrist 28.4279
rhand 46.6066 37.0735
rfingers 7.12502
rthumb 67.5891 34.8993
lclavicle 3.32964e-014 -1.19271e-015
lhumerus -55.3505 24.4838 20.949
lradius 62.3142
lwrist 12.8955
lhand 37.0095 44.0547
lfingers 7.12502
lthumb 59.8734 -302.033
rfemur -12.1063 -1.45459 15.6365
rtibia 31.3968
rfoot -4.63653 -8.03054
rtoes 35.504
lfemur -5.50958 -2.49898 -12.9141
ltibia 24.8511
lfoot -6.84431 -3.42248
ltoes -38.7147
1862
root -5.02899 18.3834 -13.7927 -1.49173 1.70347 -2.95421
lowerback 3.36105 -2.86845 0.561362
upperback -6.09827 -3.82106 -0.0937215
thorax -8.32589 -1.91414 -0.00889532
lowerneck -2.78683 -1.51753 11.7856
upperneck 3.25927 -1.71732 -26.1412
head 1.04767 -1.21396 -10.3234
rclavicle 2.42517e-014 -5.96354e-015
rhumerus -45.1259 -32.6752 -25.964
rradius 61.6111
rwrist 27.9176
rhand 45.1755 35.8344
rfingers 7.12502
rthumb 66.5204 31.4111
lclavicle 2.42517e-014 -5.96354e-015
lhumerus -54.7473 24.4149 20.2609
lradius 62.3612
lwrist 13.2477
lhand 35.5887 42.9222
lfingers 7.12502
lthumb 58.6488 -301.953
rfemur -12.0761 -1.39209 15.7358
rtibia 31.1847
rfoot -3.1667 -7.98495
rtoes 35.9832
lfemur -4.93025 -2.41461 -12.838
ltibia 24.1182
lfoot -5.11723 -3.6125
ltoes -38.7715
1863
root -5.07818 18.4601 -13.7319 -1.45445 1.78579 -2.96574
lowerback 3.08467 -2.92778 0.70275
upperback -6.10986 -3.89027 -0.0776847
thorax -8.18591 -1.95772 -0.0784475
lowerneck -3.00172 -1.48874 11.8248
upperneck 3.6893 -1.61155 -26.0931
head 1.2264 -1.19483 -10.3237
rclavicle -2.04748e-014 3.18055e-015
rhumerus -44.4699 -32.5905 -25.6981
rradius 61.4145
rwrist 27.4538
rhand 43.2578 34.7481
rfingers 7.12502
rthumb 65.0344 27.6286
lclavicle -2.04748e-014 3.18055e-015
lhumerus -54.3195 24.1675 19.5999
lradius 62.3234
lwrist 13.8208
lhand 32.9398 41.7291
lfingers 7.12502
lthumb 56.3287 -301.139
rfemur -12.1062 -1.4869 15.9155
rtibia 31.0175
rfoot -1.86975 -7.99101
rtoes 36.1567
lfemur -4.623 -2.33263 -12.6192
ltibia 23.5486
lfoot -3.64382 -3.92844
ltoes -38.7584
1864
root -5.12071 18.5287 -13.6733 -1.43542 1.98758 -2.60445
lowerback 2.88081 -3.00954 0.536265
upperback -6.1412 -4.01913 -0.172166
thorax -8.09722 -2.01499 -0.0827218
lowerneck -3.24095 -1.43867 11.7838
upperneck 4.12649 -1.47513 -25.9602
head 1.41974 -1.16136 -10.2784
rclavicle -2.0773e-014 5.56597e-015
rhumerus -43.7879 -32.2918 -25.3944
rradius 61.2177
rwrist 26.8693
rhand 40.454 33.6441
rfingers 7.12502
rthumb 62.7705 23.1438
lclavicle -2.0773e-014 5.56597e-015
lhumerus -53.8856 23.7854 18.9505
lradius 62.3637
lwrist 14.7565
lhand 29.6789 39.6154
lfingers 7.12502
lthumb 53.418 -301.161
rfemur -12.0304 -1.75597 15.6043
rtibia 30.8604
rfoot -0.705888 -7.80161
rtoes 36.579
lfemur -4.43233 -2.38821 -12.8461
ltibia 23.2418
lfoot -2.38669 -4.02968
ltoes -39.3602
